<svg id="Capa_1" enable-background="new 0 0 511.906 511.906" height="512" viewBox="0 0 511.906 511.906" width="512" xmlns="http://www.w3.org/2000/svg"><path d="m461.851 464.732-57.66-256.77c-1.769-7.88-6.501-14.599-13.324-18.919-6.796-4.302-14.853-5.711-22.704-3.975l-6.287-30.004c-.85-4.055-4.824-6.65-8.879-5.803-4.054.85-6.652 4.825-5.803 8.879l6.331 30.213-17.596 3.951-23.49-111.181c-.002-.011-.006-.021-.008-.031-4.459-27.153-28.081-47.939-56.477-47.939-31.565 0-57.245 25.68-57.245 57.245s25.68 57.245 57.245 57.245c20.942 0 39.284-11.31 49.264-28.136l4.92 23.288c-14.171 14.641-33.752 23.001-54.184 23.001-41.574 0-75.397-33.823-75.397-75.398 0-41.574 33.823-75.397 75.397-75.397 17.263 0 34.133 5.981 47.503 16.843 13.186 10.711 22.458 25.685 26.091 42.079l10.976 52.38c.85 4.055 4.828 6.652 8.879 5.802 4.054-.849 6.652-4.824 5.803-8.878l-10.996-52.466c-4.38-19.769-15.495-37.725-31.297-50.561-16.035-13.026-36.263-20.2-56.96-20.2-45.482 0-83.219 33.764-89.479 77.542l-22.719 107.529c-7.854-1.741-15.917-.332-22.715 3.972-6.823 4.32-11.556 11.039-13.324 18.919l-15.123 67.343c-.908 4.042 1.633 8.054 5.674 8.961 4.048.909 8.054-1.633 8.961-5.674l9.413-41.917 75.623 16.982-30.499 135.814-75.623-16.982 14.051-62.571c.908-4.042-1.633-8.053-5.674-8.961-4.046-.907-8.054 1.634-8.961 5.675l-35.503 158.101c-3.651 16.266 6.61 32.47 22.875 36.122l45.896 10.307c2.222.499 4.461.746 6.684.745 5.66 0 11.217-1.599 16.115-4.701 6.823-4.32 11.555-11.039 13.323-18.918l57.66-256.77c3.587-15.971-6.245-31.874-21.999-35.903l7.555-35.758c15.679 13.067 35.831 20.939 57.789 20.939 21.209 0 41.662-7.504 57.796-20.907l7.548 35.725c-15.754 4.029-25.586 19.932-21.999 35.903l23.453 104.442c.907 4.042 4.916 6.582 8.961 5.675 4.041-.908 6.582-4.919 5.674-8.961l-17.743-79.015 75.623-16.982 30.498 135.814-75.623 16.982-5.646-25.142c-.907-4.042-4.912-6.58-8.961-5.675-4.041.908-6.582 4.919-5.674 8.961l27.097 120.67c1.77 7.88 6.501 14.599 13.324 18.919 4.899 3.103 10.454 4.701 16.115 4.701 2.223 0 4.462-.247 6.684-.745l45.896-10.307c16.266-3.651 26.527-19.855 22.875-36.122zm-276.306-317.709-9.567 45.281-17.586-3.949 13.613-64.431c3.364 8.392 7.952 16.164 13.54 23.099zm-27.066 257.084-5.106 22.737-75.623-16.982 5.106-22.737zm-18.166 80.894c-.891 3.97-3.274 7.354-6.712 9.531s-7.518 2.885-11.487 1.993l-45.896-10.307c-8.195-1.84-13.366-10.005-11.526-18.2l9.773-43.521 75.622 16.982zm57.661-256.771-2.423 10.791-75.623-16.982 2.423-10.791c.892-3.97 3.276-7.355 6.714-9.532 3.438-2.178 7.518-2.884 11.487-1.993l45.896 10.306c8.196 1.841 13.366 10.006 11.526 18.201zm57.979-95.587c-23.294 0-42.245-18.951-42.245-42.245s18.951-42.245 42.245-42.245 42.245 18.951 42.245 42.245-18.951 42.245-42.245 42.245zm60.403 106.378-2.423-10.791c-1.84-8.195 3.33-16.36 11.525-18.2l45.896-10.306c3.97-.891 8.049-.183 11.487 1.993 3.438 2.177 5.822 5.562 6.714 9.532l2.423 10.791zm112.695 148.104 5.106 22.737-75.623 16.982-5.106-22.737zm6.639 99.094-45.896 10.307c-3.968.892-8.049.184-11.487-1.993s-5.821-5.562-6.713-9.532l-9.773-43.521 75.623-16.982 9.773 43.52c1.839 8.196-3.332 16.361-11.527 18.201z"/></svg>